<svg xmlns="http://www.w3.org/2000/svg" width="257" height="146" viewBox="0 0 257 146"><g><g><g><text fill="#070707" dominant-baseline="text-before-edge" font-family="'Lato','Lato-Regular'" font-size="14" font-style="none" font-weight="400" transform="translate(0 132)"><tspan style="font-kerning:normal">В</tspan><tspan style="font-kerning:normal">аш Драйвер роста в бизнесе с Китаем!</tspan></text></g></g><g><g><text fill="#26272d" style="text-transform:uppercase;line-height:53px" dominant-baseline="text-before-edge" font-family="'Lato','Lato-Regular'" font-size="30" font-style="none" font-weight="400" transform="translate(34 96)"><tspan style="font-kerning:normal">ROCKET </tspan><tspan font-size="12" style="font-kerning:normal">to</tspan><tspan style="font-kerning:normal"> CHINA</tspan></text></g></g><g><path fill="#00a500" d="M88 41.999s13.746-2.975 26.1-15.224c12.355-12.25 15.661-26.776 15.661-26.776s3.132 14.35 14.616 25.725C155.862 37.099 171 41.999 171 41.999s-11.36 2.252-23.49 13.125C131.5 69.474 129.76 83.999 129.76 83.999s-1.74-5.425-4.176-11.025c-2.436-5.6-5.22-8.4-5.22-8.4s1.044-1.05 1.566-3.15c.522-2.1 0-3.15 0-3.15s4.698-2.1 9.396-8.925c4.698-6.825 4.698-13.65 4.698-13.65s-8.004 1.225-13.572 5.25-7.83 8.4-7.83 8.4-1.914-.7-4.176 0c-2.263.7-3.133 2.1-3.133 2.1s-2.61-2.8-8.352-5.775C93.62 42.906 88 41.999 88 41.999zm62.641-28.875s3.306-1.225 5.22-3.15c1.915-1.925 2.089-4.725 2.089-4.725s.348 2.625 2.61 4.725c2.262 2.1 5.742 3.15 5.742 3.15s-2.088.175-4.698 2.625c-2.61 2.45-3.132 5.25-3.132 5.25s-.522-2.45-2.61-4.725c-2.088-2.275-5.22-3.15-5.22-3.15zm-47.998 53.681l9.615-9.14a1.56 1.56 0 0 1 2.214.05 1.581 1.581 0 0 1-.051 2.227l-9.615 9.14a1.56 1.56 0 0 1-2.214-.05 1.581 1.581 0 0 1 .05-2.227zm-1.044-6.824l4.395-3.891a1.56 1.56 0 0 1 2.214.05c.597.63.574 1.627-.051 2.228l-4.395 3.89a1.56 1.56 0 0 1-2.214-.051 1.58 1.58 0 0 1 .05-2.226zm6.786 8.924l5.439-4.94a1.56 1.56 0 0 1 2.214.052 1.58 1.58 0 0 1-.051 2.226l-5.439 4.94a1.56 1.56 0 0 1-2.214-.05 1.582 1.582 0 0 1 .051-2.228zM97.423 72.58l1.262-1.265a1.56 1.56 0 0 1 2.215.051 1.581 1.581 0 0 1-.051 2.227l-1.263 1.265a1.56 1.56 0 0 1-2.214-.051 1.581 1.581 0 0 1 .05-2.227zm-1.044-6.825l1.262-1.265a1.56 1.56 0 0 1 2.215.05c.597.63.574 1.627-.051 2.228l-1.263 1.265a1.56 1.56 0 0 1-2.214-.05 1.582 1.582 0 0 1 .05-2.228zm7.83 7.875l.74-.74a1.56 1.56 0 0 1 2.215.05c.597.63.574 1.627-.051 2.228l-.74.74a1.56 1.56 0 0 1-2.215-.05 1.582 1.582 0 0 1 .05-2.228z"/></g></g></svg>