<svg xmlns="http://www.w3.org/2000/svg" width="13" height="13" viewBox="0 0 13 13"><g><g><path d="M13 4.972v7.375a.647.647 0 0 1-.127.383l-.004.007c-.001.002-.004.002-.005.005a.645.645 0 0 1-.514.255H.65a.642.642 0 0 1-.513-.255l-.007-.005c-.002-.002-.002-.005-.003-.007A.647.647 0 0 1 0 12.347V4.972l.002-.013a.2.2 0 0 1 .01-.044.226.226 0 0 1 .012-.038.253.253 0 0 1 .05-.067c.004-.002.005-.007.009-.009l2.083-1.62V1.501c0-.36.29-.651.65-.651h2.348l.94-.73a.64.64 0 0 1 .79 0l.94.73h2.349c.359 0 .65.292.65.651V3.18l2.084 1.621c.003.002.005.007.008.01.011.01.02.022.03.033.007.01.015.022.02.033.006.013.01.025.013.038a.188.188 0 0 1 .01.044l.002.013zM5.87.851h1.257l-.5-.388a.205.205 0 0 0-.259 0zm6.424 11.713L6.628 8.158a.207.207 0 0 0-.259 0L.704 12.564zm.271-.338V5.303L9.01 8.068a.217.217 0 1 1-.265-.343l3.613-2.81-1.524-1.185v1.676a.217.217 0 1 1-.434 0V1.502a.217.217 0 0 0-.216-.217H2.816a.217.217 0 0 0-.217.217v3.904a.217.217 0 1 1-.433 0V3.73L.64 4.916 4.25 7.72a.217.217 0 0 1-.266.343l-3.55-2.76v6.923l5.671-4.41a.64.64 0 0 1 .79 0zm-4.285-6.17a.865.865 0 0 1-.906-.775A1.3 1.3 0 1 1 6.5 3.02a.217.217 0 1 1 0 .434.867.867 0 1 0 .867.866.217.217 0 0 1 .433 0v.869a.434.434 0 0 0 .867 0V4.32a2.168 2.168 0 1 0-4.333 0c0 1.199.97 2.17 2.166 2.17a.216.216 0 1 1 0 .433 2.602 2.602 0 0 1-2.6-2.603 2.601 2.601 0 1 1 5.2 0v.869a.864.864 0 0 1-.818.866z"/></g></g></svg>