<svg xmlns="http://www.w3.org/2000/svg" width="13" height="13" viewBox="0 0 13 13"><g><g><path d="M12.89 11.057l-.662 1.1a1.552 1.552 0 0 1-.918.708c-.332.09-.675.134-1.018.133-1.494 0-3.668-.785-6.587-3.706C.035 5.619-.263 3.126.133 1.682.242 1.297.495.968.841.765l1.1-.661a.763.763 0 0 1 1.03.232l1.754 2.632a.769.769 0 0 1-.167 1.028l-.984.767c-.13.1-.167.28-.087.422l.08.145c.263.483.592 1.086 1.803 2.298 1.212 1.213 1.813 1.54 2.297 1.804l.145.082a.328.328 0 0 0 .42-.09L9 8.438a.767.767 0 0 1 1.028-.167l2.631 1.755c.34.226.443.68.232 1.03zm-.474-.67l-2.63-1.755a.334.334 0 0 0-.447.072l-.766.986a.758.758 0 0 1-.973.2l-.143-.078c-.507-.277-1.139-.62-2.395-1.878-1.257-1.258-1.601-1.89-1.878-2.397l-.078-.143a.758.758 0 0 1 .2-.973l.986-.767a.334.334 0 0 0 .072-.446l-.8-1.201L2.611.576a.332.332 0 0 0-.447-.102l-1.1.662a1.12 1.12 0 0 0-.513.661C.185 3.13.488 5.46 4.011 8.985c3.524 3.525 5.852 3.829 7.185 3.463.278-.08.515-.263.66-.513l.66-1.1a.332.332 0 0 0-.1-.448zM7.15 1.945c0-.12.097-.217.217-.217a4.122 4.122 0 0 1 4.116 4.118c0 .119-.097.217-.217.217a.218.218 0 0 1-.216-.217A3.688 3.688 0 0 0 7.366 2.16a.217.217 0 0 1-.217-.217zm0 1.3c0-.12.097-.217.217-.217a2.82 2.82 0 0 1 2.816 2.818c0 .119-.097.217-.217.217a.218.218 0 0 1-.216-.217 2.386 2.386 0 0 0-2.383-2.384.216.216 0 0 1-.217-.217zm0 1.3c0-.12.097-.216.217-.216.837 0 1.515.68 1.516 1.517 0 .119-.097.217-.216.217a.218.218 0 0 1-.217-.217c0-.599-.485-1.083-1.083-1.084a.216.216 0 0 1-.217-.216z"/></g></g></svg>